<svg id="Layer_1" data-name="Layer 1" xmlns="http://www.w3.org/2000/svg" viewBox="0 0 64 64">
  <defs>
    <style>
      .cls-1 { fill: #cb8c2a; }
      .cls-2 { fill: #e7c89d; }
      .cls-3 { fill: #1A1F27; }
    </style>
  </defs>
  <!-- Dark navy rounded-square background -->
  <rect class="cls-3" y="0" width="64" height="64" rx="10" ry="10"/>
  <path class="cls-2" d="M54.45,59.99c-1.07.77-2.32,1.21-3.7,1.37-7.58.83-19.35-7.18-29.51-20.67C9.22,24.73,5.38,8.96,12.3,4.01l5.88,7.43c-3.95,2.83-1.27,15.38,8.89,28.87,10.16,13.49,21.64,19.75,25.59,16.92l1.79,2.75Z"/>
  <polygon class="cls-3" points="22.37 31.75 19 25.2 15.19 31.92 18.77 38.3 22.37 31.75"/>
  <polygon class="cls-3" points="37.94 51.22 34.06 47.58 30.19 51.34 33.81 54.88 37.94 51.22"/>
  <path class="cls-2" d="M13.44,60.81c-1.06-.77-1.88-1.82-2.46-3.09-3.18-6.93.73-20.63,10.34-34.52C32.68,6.78,46.44-1.82,53.31,3.19l-5.21,7.92c-3.92-2.86-14.99,3.63-24.6,17.52-9.61,13.89-11.94,26.75-8.01,29.62l-2.05,2.57Z"/>
  <polygon class="cls-3" points="27.47 13.83 33.53 18.33 38.71 13.83 32.32 8.49 27.47 13.83"/>
  <path class="cls-2" d="M15.49,58.25c3.92,2.86,14.99-3.63,24.6-17.52h0c8.43-12.18,11.25-23.58,9.17-28.13-.29-.64-.68-1.14-1.16-1.49l5.21-7.92c6.88,5.01,3.49,21.18-7.88,37.6h0c-11.37,16.42-25.12,25.03-32,20.02"/>
  <polygon class="cls-3" points="44.18 30.19 48.73 37.39 52.08 31.71 47.33 24.21 44.18 30.19"/>
  <path class="cls-2" d="M52.66,57.24c3.95-2.82,1.27-15.38-8.89-28.87h0c-8.91-11.84-18.84-18.1-23.81-17.56-.7.08-1.29.29-1.78.63l-5.88-7.43c6.92-4.95,21.2,3.35,33.22,19.31h0c12.02,15.96,15.86,31.72,8.94,36.67"/>
  <g>
    <path class="cls-1" d="M45.3,51.6c-4.1,0-7.91-2.22-9.94-5.78l-2.47-4.29,3.15-5.49,4.05,7.06c1.07,1.86,3.07,3.01,5.21,3.02h17.89v5.48h-17.89Z"/>
    <path class="cls-3" d="M36.04,36.79l3.73,6.5c1.14,1.98,3.25,3.2,5.53,3.21h17.52v4.73h-17.52c-3.97,0-7.64-2.14-9.62-5.59l-2.36-4.11,2.71-4.73M36.04,35.29l-.65,1.13-2.71,4.73-.21.37.21.37,2.36,4.11c2.1,3.67,6.03,5.96,10.26,5.97h18.27v-6.23h-18.27c-2.01,0-3.88-1.09-4.88-2.83l-3.73-6.49-.65-1.13h0Z"/>
  </g>
  <g>
    <g>
      <path class="cls-1" d="M.95,51.6v-29.31h5.46v23.83h10.52c2.14,0,4.14-1.16,5.21-3.02l13.22-23.03c2.04-3.54,5.86-5.75,9.95-5.76h17.89v5.48h-17.89c-2.15,0-4.14,1.16-5.21,3.02l-13.21,23.03c-2.04,3.55-5.86,5.75-9.95,5.76H.95Z"/>
      <path class="cls-3" d="M62.82,14.69v4.73h-17.52c-2.29,0-4.4,1.23-5.54,3.21l-13.21,23.03c-1.98,3.44-5.65,5.57-9.62,5.57H1.32v-28.56h4.71v23.83h10.89c2.28,0,4.39-1.23,5.53-3.21l13.22-23.03c1.98-3.44,5.65-5.56,9.62-5.57h17.51M63.57,13.94h-18.26c-4.23,0-8.16,2.28-10.27,5.94l-13.22,23.04c-1,1.74-2.87,2.83-4.88,2.83H6.79v-23.83H.57v30.06h16.35c4.23,0,8.16-2.29,10.27-5.95l13.22-23.03c1-1.74,2.88-2.83,4.89-2.83h18.27v-6.23h0Z"/>
    </g>
    <rect class="cls-1" x=".99" y="12.78" width="5.39" height="4.95"/>
  </g>
</svg>
